<svg viewBox="0 0 60 50" fill="none" xmlns="http://www.w3.org/2000/svg">
  <!-- Hippo SVG - scaled to fit logo size -->
  <g transform="translate(0, 3.6) scale(0.08)">
    <path
      fill="none"
      stroke="#10b981"
      stroke-width="30"
      stroke-linecap="round"
      stroke-linejoin="round"
      stroke-miterlimit="10"
      d="M259 154C372 154 447 115 447 115M259 154C259 154 291 193 291 284.5C291 342.883 296 412 296 412M259 154C152.5 96.5 15.0006 223.5 15 346C14.9996 426.103 87.9995 513.5 87.9995 513.5H157C157 513.5 162.255 448.83 190.5 425C222.228 398.231 296 412 296 412M447 115C447 115 465.748 99.1599 469 85C474.316 61.8478 443 24 443 24C443 24 411.347 63.0653 418 85C422.729 100.593 447 115 447 115ZM447 115C447 115 551 129 551 174C620.5 180.5 696.5 142 696.5 257.5C696.5 373 525.741 295.622 476 335.5C405.215 392.25 425 519.5 425 519.5C425 519.5 368.5 519.5 339.5 519.5C302 489 296 412 296 412"
    />
  </g>
</svg>

